# xmcd CD database file
#
# Track frame offsets:
#	150
#	14004
#	22315
#	33370
#	43955
#	59418
#	67583
#	84154
#	91003
#	103063
#	116522
#	126109
#	143221
#	152189
#	170567
#
# Disc length: 2435 seconds
#
# Revision: 0
# Processed by: cddbd v1.5.1PL0 Copyright (c) Steve Scherf et al.
# Submitted via: CDex 1.51
#
DISCID=c709810f
DTITLE=Miller, John - How About Me
DYEAR=1974
DGENRE=Blues
TTITLE0=How About Me
TTITLE1=Where Shall I Be
TTITLE2=Fare Thee
TTITLE3=Muskrat Ramble
TTITLE4=Think Of Me Thinking Of You
TTITLE5=Spittin' On The Sidewalk
TTITLE6=Trouble In The Air
TTITLE7=Pork's Chops
TTITLE8=No Baby Blues
TTITLE9=Honey
TTITLE10=St. Thomas
TTITLE11=Lonesome Bar
TTITLE12=Mr. Miller's Blues
TTITLE13=Someone to Watch Over Me
TTITLE14=Bob McKinney
EXTD=YEAR: 1974
EXTT0=
EXTT1=
EXTT2=
EXTT3=
EXTT4=
EXTT5=
EXTT6=
EXTT7=
EXTT8=
EXTT9=
EXTT10=
EXTT11=
EXTT12=
EXTT13=
EXTT14=
PLAYORDER=
